<?xml version="1.0" standalone="no"?>
<!DOCTYPE svg PUBLIC "-//W3C//DTD SVG 20010904//EN"
 "http://www.w3.org/TR/2001/REC-SVG-20010904/DTD/svg10.dtd">
<svg version="1.0" xmlns="http://www.w3.org/2000/svg"
 width="1080.000000pt" height="1080.000000pt" viewBox="0 0 1080.000000 1080.000000"
 preserveAspectRatio="xMidYMid meet">
<metadata>
Created by potrace 1.11, written by Peter Selinger 2001-2013
</metadata>
<g transform="translate(0.000000,1080.000000) scale(0.100000,-0.100000)"
fill="#000000" stroke="none">
<path d="M5680 8994 c0 -20 355 -1452 359 -1448 3 2 161 305 353 672 l348 667
-27 7 c-16 4 -235 28 -488 53 -253 25 -479 48 -502 51 -24 4 -43 2 -43 -2z"/>
<path d="M4374 8509 c-276 -220 -374 -304 -363 -310 8 -4 255 -163 549 -352
294 -189 536 -344 537 -343 5 4 -332 1306 -338 1306 -4 0 -177 -136 -385 -301z"/>
<path d="M7420 8494 c-209 -464 -501 -1126 -497 -1130 4 -5 1199 300 1229 313
13 7 -48 88 -328 433 -190 234 -351 431 -359 439 -12 13 -19 5 -45 -55z"/>
<path d="M3478 7400 c-32 -85 -41 -140 -35 -226 4 -69 11 -97 40 -157 19 -39
48 -85 65 -102 16 -16 425 -316 908 -665 1229 -889 1131 -820 1168 -820 43 0
56 16 56 70 0 58 -43 135 -102 183 -24 19 -477 348 -1008 731 -531 384 -978
711 -993 729 -51 59 -71 115 -77 212 l-5 90 -17 -45z"/>
<path d="M2500 6963 c-52 -137 -47 -272 13 -395 18 -38 31 -68 29 -68 -2 0
-68 33 -146 74 -92 48 -161 78 -198 85 -222 40 -431 -138 -468 -400 -14 -95 1
-185 45 -275 44 -91 101 -144 235 -219 l105 -60 -75 -6 c-109 -10 -180 -40
-254 -109 -123 -116 -172 -285 -131 -459 36 -150 99 -215 348 -360 97 -57 177
-106 177 -110 0 -3 -42 -6 -93 -6 -78 -1 -101 -5 -147 -27 -280 -132 -352
-546 -132 -761 104 -101 2496 -1541 2987 -1798 697 -365 1517 -344 2108 54 54
36 114 71 135 78 312 101 723 472 949 856 193 329 312 717 337 1098 6 90 5 88
-49 -95 -48 -168 -131 -374 -221 -550 -149 -294 -305 -511 -524 -731 -257
-257 -437 -368 -705 -434 -496 -122 -1173 28 -1835 408 -177 101 -730 485
-1275 886 -322 236 -1126 842 -1208 911 -143 119 -208 215 -229 339 -9 53 -9
78 0 109 17 57 105 142 189 183 64 32 73 34 178 34 90 -1 118 -4 155 -22 25
-11 429 -298 898 -637 469 -339 855 -616 858 -616 3 0 3 4 0 8 -3 5 8 6 25 4
41 -6 69 21 69 68 0 46 -40 126 -82 167 -18 17 -499 365 -1068 773 -569 408
-1050 758 -1069 778 -18 20 -45 62 -59 92 -23 48 -26 69 -27 160 l0 106 37 49
c117 160 347 217 513 126 28 -15 522 -368 1099 -785 576 -417 1056 -761 1066
-763 12 -3 24 4 35 21 42 63 -13 172 -128 258 -40 30 -576 418 -1191 863 -616
446 -1135 825 -1154 844 -19 19 -48 63 -64 98 -24 51 -30 78 -31 138 -1 41 -2
75 -4 75 -1 0 -11 -26 -23 -57z"/>
<path d="M6362 6913 c-52 -124 -75 -282 -54 -390 5 -29 8 -53 6 -53 -13 0
-172 190 -263 313 -63 86 -80 102 -127 124 -48 22 -66 25 -137 21 -141 -6
-259 -81 -326 -207 l-31 -59 605 -434 c511 -366 807 -571 847 -586 5 -2 -14
26 -41 62 -89 118 -150 269 -180 446 -15 88 -20 101 -57 146 -144 171 -216
361 -216 562 -1 56 -2 102 -3 102 -1 0 -12 -21 -23 -47z"/>
<path d="M403 5055 c0 -22 2 -30 4 -17 2 12 2 30 0 40 -3 9 -5 -1 -4 -23z"/>
<path d="M10393 5050 c0 -25 2 -35 4 -22 2 12 2 32 0 45 -2 12 -4 2 -4 -23z"/>
<path d="M401 4984 c0 -11 3 -14 6 -6 3 7 2 16 -1 19 -3 4 -6 -2 -5 -13z"/>
<path d="M10386 4948 c-3 -13 -12 -86 -21 -163 -134 -1152 -716 -2280 -1581
-3066 -359 -327 -712 -571 -1134 -784 -340 -171 -668 -294 -1028 -384 -371
-93 -710 -138 -1107 -148 -592 -14 -1133 67 -1690 252 -689 229 -1308 597
-1845 1097 -422 393 -775 864 -1044 1392 -93 184 -104 209 -181 401 -153 379
-273 837 -316 1205 -12 104 -34 170 -24 75 2 -28 7 -79 11 -115 3 -36 10 -81
15 -100 5 -19 9 -53 9 -76 0 -22 3 -44 7 -48 4 -3 8 -21 9 -39 2 -18 6 -48 10
-67 5 -19 9 -39 9 -45 6 -49 19 -103 29 -114 8 -11 8 -13 -1 -7 -16 9 -16 5
-2 -31 6 -15 12 -35 14 -43 7 -34 46 -188 59 -235 8 -27 22 -77 31 -110 9 -33
21 -63 28 -67 6 -4 8 -10 5 -14 -4 -4 -2 -16 4 -28 6 -11 15 -34 19 -51 4 -16
15 -50 24 -75 21 -59 22 -64 23 -70 0 -3 13 -31 30 -62 16 -32 25 -55 19 -51
-5 3 -3 -7 5 -23 9 -16 33 -67 53 -114 21 -47 55 -120 76 -162 21 -43 35 -78
32 -78 -3 0 1 -8 10 -17 8 -10 28 -43 44 -73 59 -111 96 -176 127 -220 17 -25
31 -48 31 -51 0 -4 34 -57 75 -118 41 -62 80 -120 85 -129 6 -9 39 -55 75
-102 87 -115 82 -109 112 -142 16 -16 28 -34 28 -39 0 -5 5 -9 12 -9 6 0 9 -3
5 -6 -3 -3 10 -21 29 -40 19 -19 34 -39 34 -44 0 -5 9 -12 20 -15 11 -3 20
-12 20 -19 0 -14 136 -162 239 -260 35 -34 91 -88 125 -121 33 -33 95 -88 136
-122 41 -34 89 -73 105 -88 65 -57 75 -65 75 -58 0 4 8 -2 19 -13 21 -21 50
-44 131 -103 30 -22 61 -45 67 -51 7 -6 13 -7 13 -3 0 4 4 3 8 -3 10 -15 99
-74 111 -74 5 0 15 -8 20 -18 6 -9 11 -14 11 -9 0 8 42 -17 73 -43 24 -20 124
-79 227 -131 47 -24 87 -46 90 -49 9 -10 65 -33 74 -31 5 1 19 -8 31 -19 13
-12 30 -22 38 -24 8 -1 21 -6 28 -12 8 -6 34 -18 59 -28 25 -10 79 -34 120
-54 41 -19 93 -41 115 -48 57 -18 174 -62 185 -69 11 -7 38 -14 83 -22 15 -3
27 -9 27 -14 0 -5 8 -9 18 -9 9 0 37 -7 62 -16 25 -9 70 -23 100 -31 71 -19
68 -18 115 -28 22 -4 44 -10 50 -13 5 -3 16 -7 25 -9 8 -1 62 -13 120 -27 58
-14 123 -28 145 -31 22 -2 51 -6 65 -9 44 -8 164 -25 215 -31 28 -3 66 -8 85
-10 263 -36 870 -35 1099 1 20 3 59 8 86 10 28 2 63 5 80 8 16 3 52 8 80 12
27 3 59 10 70 14 11 4 42 11 69 14 27 4 54 10 60 13 9 6 36 10 89 12 10 1 15
5 12 11 -3 5 0 7 9 4 8 -3 52 4 98 16 46 12 93 24 104 25 12 2 30 7 40 13 11
6 21 10 24 10 18 0 188 52 235 72 20 9 92 32 110 36 6 1 28 10 50 20 22 10 42
18 45 19 3 1 26 8 53 15 26 8 47 18 47 22 0 4 5 8 11 8 6 0 25 6 42 14 99 45
148 66 153 66 3 0 19 9 35 21 16 11 34 17 40 13 8 -4 9 -3 5 4 -4 7 -1 12 9
12 19 0 136 60 147 75 5 7 8 7 8 0 0 -7 3 -7 8 0 4 6 29 21 57 35 27 14 89 51
137 83 48 31 90 57 93 57 4 0 40 23 81 50 41 28 79 50 84 50 6 0 10 5 10 10 0
6 5 10 11 10 9 0 45 26 177 127 13 10 43 34 67 53 23 19 52 42 65 50 12 8 36
29 54 45 17 17 56 50 86 74 30 25 82 71 115 103 33 31 77 73 98 93 21 19 37
35 34 35 -2 0 44 49 102 108 58 59 122 128 141 152 19 24 55 67 80 95 25 29
54 65 65 80 11 16 31 43 45 60 40 48 84 107 104 140 11 17 25 34 33 38 7 4 13
13 13 19 0 6 11 26 25 44 14 18 25 37 25 43 0 6 4 11 8 11 5 0 30 37 57 83 27
45 61 101 77 125 16 23 26 42 22 42 -4 0 0 8 8 18 8 9 30 46 49 82 19 36 36
67 39 70 10 9 65 125 63 132 -1 3 4 12 12 18 8 7 15 17 15 22 0 6 15 43 34 82
19 39 44 96 56 126 12 30 28 71 37 90 26 61 31 74 44 115 6 22 14 45 18 50 3
6 6 12 7 15 0 3 3 12 7 20 26 64 55 165 50 173 -3 6 -1 7 5 3 6 -4 11 1 11 11
0 10 12 59 26 108 15 50 27 98 26 108 0 9 4 17 8 17 4 0 8 6 8 13 1 6 6 37 13
67 6 30 14 66 16 79 3 14 7 28 9 31 3 4 7 32 11 61 3 30 9 58 12 63 3 5 6 21
7 35 1 14 7 55 13 91 6 36 14 81 16 100 13 89 15 109 21 160 3 30 8 82 10 115
3 33 7 75 9 93 6 36 -1 44 -8 10z"/>
<path d="M413 4915 c0 -22 2 -30 4 -17 2 12 2 30 0 40 -3 9 -5 -1 -4 -23z"/>
</g>
</svg>
